Coordinates
version=1
nRows=26
nColumns=24
inDegrees=yes

Units are S.I. units (second, meters, Newtons, ...)
If the header above contains a line with 'inDegrees', this indicates whether rotational values are in degrees (yes) or radians (no).

endheader
time	pelvis_tilt	pelvis_list	pelvis_rotation	pelvis_tx	pelvis_ty	pelvis_tz	hip_flexion_r	hip_adduction_r	hip_rotation_r	knee_angle_r	ankle_angle_r	subtalar_angle_r	mtp_angle_r	hip_flexion_l	hip_adduction_l	hip_rotation_l	knee_angle_l	ankle_angle_l	subtalar_angle_l	mtp_angle_l	lumbar_extension	lumbar_bending	lumbar_rotation
1.0	5.800761694685103	2.8462817634642774	3.066868416947958	0.6048971000508998	1.0437137709791529	0.013670952955962844	21.31768504757041	-4.448201359582892	-7.39615874574778	-38.423447072799995	-4.151650310348804	-5.078772100464092e-06	4.4358722857351063e-10	-3.9113064307636414	2.1461859087140716	-0.04589193607710662	-55.10248424559016	8.067934847436529	7.96717035762794e-07	1.928998371833515e-15	-15.37996966887837	-1.4795419695386214	-6.394053510458209
1.017	5.057097632575048	-0.7309055881184308	1.3041851492701668	0.6017640834494041	1.03750583220771	0.0359903524947347	4.284043826032481	1.1495957159922428	-2.3038563148866658	-30.72564427136866	6.799140617456052	-2.332130855512137e-06	-2.602832717836243e-10	10.987694513498225	-2.558818779220835	0.24180130872346428	-53.98352642257929	1.1247395562274507	2.6599032180781944e-06	1.6033871863812254e-15	-15.376899883291863	2.0844607654291334	-1.9843102231566192
1.033	4.764378583769241	1.483136381746047	3.159255677436621	0.5889338819393821	1.04375161234067	0.051372004858975126	2.852794148886076	2.988334539422885	-3.5405283633844307	3.932756840936804	6.689011191459095	-2.744695811503129e-06	4.4733928249647764e-10	11.465244775306827	-3.0026480926063575	-5.151094942265426	-54.42743600354807	5.512036915149465	-3.4007218295791713e-06	-1.3297732918884848e-15	-16.48212443319207	2.564638274361168	-1.0525377261474709
1.05	5.551580425276827	1.2901869168750901	-1.4647058953109957	0.5881831840460873	1.0513964969631846	0.023682513434772363	0.8614698767447946	-2.152125312481236	-7.463279136590065	-23.104313852102678	5.800763254913706	1.414765808731167e-07	2.9644318838717907e-10	16.317062885807587	0.21620451173792654	-4.9042842805654825	-48.61290765622359	2.522482123063151	-8.143234796327503e-06	-2.3388958652968597e-16	-16.99504267138039	-3.8638227658608635	0.01723112822561479
1.067	5.043461889983654	-2.4684047741918054	-1.2360146342641776	0.5928319370801914	1.0399047305138973	0.09920073341017122	-33.50395482486677	9.167562107250074	3.349027782354492	8.240517112793292	13.977010247598084	1.5264474855826283e-07	7.951080186707312e-10	44.231144124209564	-11.121969481138837	-12.448118064260616	-60.227892075846086	-6.316350485430826	-6.219368608713278e-06	4.277700744300423e-16	-17.56921571596223	5.813661812661128	9.579120464276384
1.083	5.092478091345774	-5.245220486599729	-1.8799941767728108	0.5879409524469259	1.049152796939964	0.07912582897426099	-26.855456172880555	9.03116887207014	1.0082982445392275	-16.118349383699865	17.175911197409235	-2.20745892263452e-06	5.6665176831404304e-11	40.23379215261602	-10.992773680373244	-11.522438967395976	-39.700018658621595	-7.197898616222881	-5.317630535544862e-06	1.328486668198837e-15	-17.546870872252764	6.754649664722657	8.011405338919253
1.1	3.388554381047335	-5.41806073459339	-3.2108452943613734	0.5695110115643245	1.0219927613850912	0.08081664682127523	-34.412073411509006	11.794605665459695	3.718963150595791	28.21920345476257	20.52539138911216	3.3685486888187306e-06	4.470680776582022e-12	33.75054843093763	-11.273837031118713	-13.617727860130245	-12.681118925066556	-5.390098506981491	-8.221835632075818e-06	-8.560421775537944e-16	-17.121157468724206	6.211396587073693	9.290849490931759
1.117	4.620110632126822	-5.721537401743738	-2.7329483850867353	0.5900410566361342	1.0293253312368607	0.08651916438207266	-34.8231590123676	10.445720998495787	4.476430647514055	-11.089160640321012	11.644795901423915	1.6363904371745892e-06	3.1283190608413347e-10	39.37984155126286	-12.363635484985366	-16.076729446301243	-21.769615962596575	-9.093602575082164	-7.1029121310604666e-06	-5.235649953138163e-16	-16.69337815064873	6.726126742443768	9.008552789988286
1.133	4.672385592045155	-2.2406778487816483	-1.4422595139016852	0.5795006704575751	1.0373946063027089	0.035690996479483136	-5.842791889884056	3.182779569069714	-1.9625290147213796	-12.85395435005422	11.028918225098998	-1.1219733752018906e-06	1.3459773162011977e-10	14.192007285564786	-3.3310095321493107	-7.839777822030859	-15.215268888249566	0.37729681171881	-3.7998878116224262e-06	5.778076852630114e-16	-16.673991189531126	1.6640713816652613	1.3518669246061892
1.15	5.619803800569521	-4.145882745278446	0.6324986024711108	0.5904384651303466	1.0502847237278363	0.0223019773330517	6.971521076441812	1.6792863192251506	-5.525015445015564	-54.82767088464236	6.715052059344021	-6.693810467582972e-06	1.168232019564816e-09	9.474092739789382	-3.60403587057918	-4.4680305681903905	-15.303700700965742	-0.7875100418953448	1.331872665870629e-06	-1.0710111804188828e-15	-16.299189009675253	4.252709888682656	-1.853741363864426
1.167	3.727460028737025	-6.802925675743932	-6.577584181588039	0.5766248138008885	1.0081516552404393	0.07115883866126724	-39.64014163468924	9.21988513992498	8.167611883452985	0.18519717093610488	17.929895358444348	1.0493892258303975e-06	-1.6650654626024514e-09	33.35758127774524	-9.582645331038716	-10.715854274477532	9.138407413546354	-6.797655360619334	-2.753356125512863e-06	2.044514074816017e-16	-16.853711842951647	4.699562279734348	10.088109606887782
1.183	4.555523539454559	0.7101492642569216	2.5391365126860204	0.5728966432774458	1.008103839700007	-0.007245796738810713	23.857641145024555	-2.185109997080245	-6.085653473053181	-1.4823474252237823	-0.38762496574881844	-4.216190596761907e-06	3.0698424453222466e-10	-27.487444923978845	3.3944813601294435	3.4521938806036774	15.46858944263283	15.109701956873165	2.6496478862085174e-06	-4.151302799718429e-17	-15.90415242355007	0.13099395198762398	-9.046347313287933
1.2	5.334536206245993	-1.6485253599330978	-1.5372476752165614	0.5855088508958166	1.0281497779071846	0.0121740924502041	4.807553507758225	-1.781613274421587	-3.964270886986891	-37.01019741256687	2.528395297682021	-5.969214992446456e-06	-1.2409549753190283e-09	-0.3181370789437743	0.14673200843692857	-1.5911539689566414	3.1667320925170697	6.8882457372704735	1.1500013108461002e-07	-1.02969530094075e-15	-16.307714305676864	-0.2801922757895712	-2.3636078272431744
1.217	4.255334833716738	-5.2797088342226335	-5.3108502769152	0.57577689126232	1.0129098947232444	0.05053276353144552	-25.78305907222547	5.6125093054080555	1.4770245880195272	-6.09577073030555	13.049228010570157	6.680674415644579e-07	3.5435619276626065e-10	24.12884711469244	-6.690429422976023	-6.777402264120262	1.242542639658505	-3.030364551539714	-1.4925516774097628e-06	7.368050705619921e-16	-17.07812236640088	2.622625339905988	6.556408860011208
1.233	4.584967981599851	-2.2844999457145883	-1.1838784659893142	0.5746921330057472	1.012596243349061	0.039723876177354234	-10.190157920205984	4.301670681088704	2.0455952718457775	8.182881571938307	11.632894430659551	-2.1273764755157406e-07	-1.9211214830110564e-11	5.770024411213209	-3.6114299453247654	-4.341947571023095	1.9825693563011841	4.113266948096518	-1.6169516781506086e-06	2.15655615058224e-17	-17.001882937420167	2.494604456950262	0.7080954797231063
1.25	4.527752297720291	-3.755153754463367	-3.981624606384803	0.5778018150036685	1.0076319273882457	0.044720190344333874	-20.101229296241858	4.2090570314660845	5.2327905895769415	-3.9496275412985193	14.623928667701419	1.299290913359876e-06	-6.777822839558662e-10	15.767182174623326	-5.184692034834458	-2.29189495488043	-3.7509304860570816	1.8057759226855212	-1.0099997967150175e-06	-4.023573476867662e-16	-17.06165660014493	2.016153818283162	3.7158249323242076
1.267	4.967620633618214	-4.708067572996031	-8.632426128168724	0.5871822837878465	1.0263645841506874	0.04752656745048952	-32.62210976055022	1.3140320537368395	2.8064731513479324	-39.633121922793976	11.833251768042187	-1.4215102828210554e-06	4.719309753051097e-10	37.23512507189777	-5.769356056203482	-9.195883614695427	-10.295302529395478	-5.709464532417231	-6.695324303925553e-06	3.265399954590991e-16	-16.787279751917623	-1.1251809724008874	9.416548185683428
1.283	2.5656343360315614	-9.317702356454099	-10.154358323349907	0.5609693990412942	0.9921435990211824	0.10042205513782917	-67.69635297701134	15.098499931549867	13.372941069331956	40.96194966919575	29.29301360363621	8.736035480348113e-06	4.6758395943253e-10	53.25067323495914	-14.512227699571774	-13.708095707675465	12.384238741835151	-13.566002395978176	-6.06862017173141e-06	-4.60487608436474e-16	-17.80381944289729	6.155585165801254	18.004569236640293
1.3	4.716029100817076	-2.6267295008734672	-2.4749468655166735	0.5924208710698112	1.0169570517511348	0.013873482906606938	0.04723539450191794	-0.5132486875376645	-1.0895430673516526	-40.515266058932426	6.417801834634664	-8.003275053445996e-07	4.449774865876602e-10	4.692080140036879	-1.207361069914942	0.04983247531339652	-12.83621528532272	0.26760704235106925	1.8615229155111633e-07	-6.446368259473327e-16	-15.114760129440967	-0.45378017816793137	-1.8935817154172288
1.317	3.6900956265203537	-1.2085350110638076	-1.5893400160833346	0.5844038123157241	1.0035582767969822	0.03671258087297159	-8.338160622577943	2.9941387561587804	1.924753541350991	8.94485774034693	11.870354699088772	2.149564160068253e-06	-5.121781010664168e-10	5.7371287583649035	-2.8081953845853684	0.25636888160680105	-22.368244001602008	3.2230773091458413	-4.769222894488549e-07	2.4912369637584187e-16	-15.376188346760896	0.7631666054870851	-0.05787139889289783
1.333	3.4724549791943735	-2.9400386785988726	-1.8259924196638235	0.580009964507451	0.983484887831117	0.0035025506817792235	4.10404437396485	0.9816055408011513	0.9727113938796879	-4.7037127771547596	9.18169859947831	1.3997151128686968e-06	-8.108007735047359e-10	-14.972260498386678	-0.34068070277919116	5.102126509799591	15.271084163438491	5.5477414813982975	4.693179067801562e-06	4.3779877328101485e-16	-14.306625509347686	0.5622554705988445	-4.604547740200887
1.35	4.661914255829036	-3.463479144773861	-2.972533689210303	0.5922388753557079	1.0137957392364558	0.04458951725061608	-17.92621465809819	5.147299443946815	2.8961585847894766	-13.079847241918843	11.993638332759451	4.800764443127221e-06	-4.75283591065757e-10	17.066488509910688	-5.347277361340435	-5.076739827277192	-18.733084941887903	-3.353215542811828	-2.380135113357223e-06	-4.815619131554124e-16	-15.686127308174665	1.41094662544647	2.701260883615756
1.367	4.263212070454893	-1.4025525138752226	-2.5458283138935767	0.5930861394935	0.983798538267883	0.01940973707758492	-7.996054359747452	1.4920272952411446	5.059196855364959	-4.4486036740545565	8.723497088805725	7.286412885026847e-06	6.116424083356385e-11	-3.97690749255084	-0.5707933655338486	3.895321550341442	-4.800640055674382	2.9612869315383055	2.3736467941939643e-06	3.1612087017515137e-16	-14.506863215439907	-1.458576715104902	-2.5525998991519088
1.383	4.965831732269995	-2.9763631587921147	-6.683854564824571	0.6015593939768928	1.001565323420396	0.02450676316598152	-20.9216292589485	-0.5235035288301498	3.2652246314110913	-40.895606691806975	3.781906811982259	8.56423501131143e-06	7.790995326258801e-10	18.95897264987468	-2.0333410109996124	-1.622186976701503	-13.182201080800688	-5.077999418424568	-9.821266885910237e-07	-1.7743563907040814e-15	-14.902590171264716	-3.9467923552558606	3.2636806763519486
1.4	5.638897614838439	-2.256379887450816	-1.9940246125907808	0.5896903811815416	1.0352091221861517	0.008762001496581375	3.3022217646775296	-0.9846406690941496	-4.9597201711041645	-47.018064027331135	1.463218983694449	1.0495411135987755e-07	-5.914573517517196e-10	4.775970751740443	-0.09003753846778151	-3.7413171631249735	-2.1419135426391875	2.593853826698843	-1.911586284609799e-06	-4.923191511340302e-16	-16.032322484504842	-1.253364082433222	-1.8288933777336727
1.417	5.188694707955374	-2.226658289986968	-6.551887756621804	0.5990847906678135	1.012021656011078	0.028289483597941145	-19.039939470052126	-1.9609372861554366	-1.0500730411293864	-41.52796865213905	-3.1597787272567253	4.13061016622716e-06	-5.135891328167936e-10	21.5788134495525	-1.558331927274149	-4.621432152752536	-14.159773082163756	-3.9464010839805086	-1.3719446136149522e-06	-1.9256251263095972e-15	-15.517488986604764	-3.8086293229393844	4.330833694446946
